<svg id="Laag_1" data-name="Laag-1" xmlns="http://www.w3.org/2000/svg" viewBox="0 0 184.87 41.01"><defs><style>.cls-1{fill:#fff;}</style></defs><title>site-logo</title><path class="cls-1" d="M231.38,19.49V18.87c0-1.32.32-1.72,1.36-1.72V16.61h-6v0.54h0.52c1.42,0,1.84.3,1.84,1.38l0,0.34v2.21a5.14,5.14,0,0,1-2.56.66c-2.9,0-4.91-2.32-4.91-5.59,0-3.75,1.91-6.11,5-6.11a3.85,3.85,0,0,1,4,3.37h0.6V9.73h-0.56a0.53,0.53,0,0,1-.52.24,4.08,4.08,0,0,1-.92-0.16,11.29,11.29,0,0,0-3-.4,6.61,6.61,0,0,0-7,6.89c0,3.73,2.74,6.19,6.85,6.19a13.43,13.43,0,0,0,5.27-1.22V19.49h0Zm-18.29,2.8h1.06V12c0-1.36.32-1.72,1.4-1.72h0.36V9.73h-4.81v0.56h0.56c1.08,0,1.4.36,1.4,1.72v7.15l-8.92-9.42h-3.6v0.6a2.52,2.52,0,0,1,1.68.6v9c0,1.34-.32,1.72-1.38,1.72h-0.3v0.54h4.77V21.62h-0.46c-1.26,0-1.54-.32-1.54-1.72V12Zm-24.76-5.91,1.9-5.07,1.94,5.07h-3.83Zm-4.41,5.79h4.87V21.63h-0.38c-1.18,0-1.62-.2-1.62-0.76A2.84,2.84,0,0,1,187,20l1-2.66h4.57l1,2.52a3.44,3.44,0,0,1,.28,1c0,0.58-.42.76-1.68,0.76h-0.34v0.54h5.93V21.62h-0.22c-1,0-1.26-.28-1.82-1.8L191.75,9.46h-2.22l0.16,0.46-3.61,9.86c-0.6,1.62-.82,1.82-2.16,1.84v0.54h0Zm-3.85-2.67V18.87c0-1.32.32-1.72,1.36-1.72V16.61h-6v0.54H176c1.42,0,1.84.3,1.84,1.38l0,0.34v2.21a5.14,5.14,0,0,1-2.56.66c-2.89,0-4.91-2.32-4.91-5.59,0-3.75,1.92-6.11,5-6.11a3.85,3.85,0,0,1,4,3.37h0.6V9.73h-0.56a0.53,0.53,0,0,1-.52.24,4.09,4.09,0,0,1-.92-0.16,11.27,11.27,0,0,0-3-.4,6.61,6.61,0,0,0-7,6.89c0,3.73,2.73,6.19,6.85,6.19a13.43,13.43,0,0,0,5.27-1.22V19.49ZM144.4,10.2a4.36,4.36,0,0,1,.76,0,3.72,3.72,0,0,1,2.28.54,3.05,3.05,0,0,1,1.14,2.6,3,3,0,0,1-1.16,2.62,4.45,4.45,0,0,1-2.55.56,3.56,3.56,0,0,1-.46,0V10.2Zm11.68,12.18V21.8a5.74,5.74,0,0,1-1.76-.44,10.35,10.35,0,0,1-3-2.29l-1.3-1.3a17.17,17.17,0,0,0-1.5-1.38c1.72-.72,2.51-1.78,2.51-3.38a3.1,3.1,0,0,0-1.14-2.32c-1-.84-2.2-1.12-4.73-1.12-1.28,0-3.55.06-4.83,0.14v0.56c1.68,0,1.88.22,1.88,1.84v7.17l0,0.62c0,1.34-.32,1.72-1.38,1.72h-0.5v0.54h6.13V21.62H145.8c-1.08,0-1.38-.38-1.4-1.72V17.05h0.76c0.28,0,.5,0,1-0.06a15.53,15.53,0,0,1,2.16,1.92L149.38,20a6.26,6.26,0,0,0,2.8,2,8.4,8.4,0,0,0,3.43.4h0.48Zm-19.23-.22,0.3-3.13H136.6a5.62,5.62,0,0,1-.46,1.26c-0.42.78-.88,1-2.47,1h-2.22c-1,0-1.16-.2-1.16-1.44V16.19h3.07c1.08,0,1.32.2,1.48,1.28a3,3,0,0,0,0,.32h0.52v-4h-0.52l0,0.2c-0.16,1.14-.34,1.3-1.52,1.3h-3.05V10.64h3.49c1.44,0,1.6.12,1.94,1.66a3.94,3.94,0,0,0,.1.44h0.6l-0.18-3H126v0.56h0.5c1.22,0,1.5.32,1.52,1.72v8.25c0,1.08-.42,1.38-1.86,1.38h-0.72v0.54h11.38Zm-24.1-12,0.58,0h0.82c2.22,0,3.5.38,4.57,1.38a5.82,5.82,0,0,1,1.62,4.25c0,2.34-.84,4.11-2.43,5.07a7.13,7.13,0,0,1-3.89.74c-1.06,0-1.26-.22-1.26-1.44v-10h0Zm-4.11.18h0.28c1.42,0,1.62.24,1.62,2v7.55c0,1.34-.32,1.72-1.4,1.72h-0.5v0.54h5.69a12.74,12.74,0,0,0,3.49-.38,6.41,6.41,0,0,0,5-6.15,5.72,5.72,0,0,0-2.2-4.67,5.78,5.78,0,0,0-1.94-.92,15.12,15.12,0,0,0-4.37-.46c-1.52,0-3.19.06-5.13,0.2l-0.5,0v0.54ZM92.32,22.28h1.06V12c0-1.36.32-1.72,1.4-1.72h0.36V9.73H90.32v0.56h0.56c1.08,0,1.4.36,1.4,1.72v7.15L83.35,9.73H79.76v0.6a2.52,2.52,0,0,1,1.68.6v9c0,1.34-.32,1.72-1.38,1.72h-0.3v0.54h4.77V21.62H84.07c-1.26,0-1.54-.32-1.54-1.72V12ZM67.56,16.37l1.9-5.07,1.94,5.07H67.56Zm-4.41,5.79H68V21.63H67.64c-1.18,0-1.62-.2-1.62-0.76a2.9,2.9,0,0,1,.2-0.86l1-2.66h4.57l1,2.52a3.46,3.46,0,0,1,.28,1c0,0.58-.42.76-1.68,0.76H71v0.54h5.93V21.62H76.7c-1,0-1.26-.28-1.82-1.8L71,9.46H68.75l0.16,0.46L65.3,19.79c-0.6,1.62-.82,1.82-2.16,1.84v0.54h0Zm-9,.32h1.26l4.11-9.92c0.82-2,1-2.22,2.32-2.28V9.73H57v0.56c1.38,0,1.78.22,1.78,0.88a4.33,4.33,0,0,1-.46,1.52l-3,7.07-3-7.41a3.56,3.56,0,0,1-.34-1.2c0-.58.5-0.8,1.92-0.86V9.73H47.86v0.56c1.28,0,1.48.14,2.06,1.54Z" transform="translate(-47.86 -9.41)"/><path class="cls-1" d="M204.05,41.52a6,6,0,0,0-1.9-.32c-1.61,0-2.86.84-2.86,2.42,0,2.77,3.83,2.22,3.83,4.21a1.6,1.6,0,0,1-1.75,1.46,5.39,5.39,0,0,1-1.85-.44L199.4,50a6,6,0,0,0,1.82.37c1.79,0,3.26-.75,3.26-2.65,0-2.94-3.83-2.54-3.83-4.25a1.31,1.31,0,0,1,1.55-1.19,3.92,3.92,0,0,1,1.67.37Zm-22.74,8.74h5V49.14h-3.71V46.2H186V45.08h-3.38v-2.6h3.71V41.35h-5v8.91Zm-20.7,0h1.27V46.2h4.26v4.06h1.27v-8.9h-1.27v3.73h-4.26V41.35h-1.27v8.9Zm-13.09-8.67a4.92,4.92,0,0,0-2-.38,4.44,4.44,0,0,0-4.71,4.57,4.39,4.39,0,0,0,4.69,4.65,5.6,5.6,0,0,0,2-.32l-0.07-1.24a4.37,4.37,0,0,1-1.94.44,3.49,3.49,0,0,1,.06-7,3.58,3.58,0,0,1,1.84.5Zm-23.06,8.67h1.28V42.48h2.77V41.35H121.7v1.12h2.77v7.78ZM108.16,47h-3.55l1.77-4.42ZM102,50.26h1.34L104.2,48h4.36l0.91,2.24h1.39l-3.76-8.9h-1.34Zm-21.45,0h1.71l2-7.78h0l1.94,7.78h1.65l2.74-8.9H89.17L87,49h0l-1.93-7.63H83.28L81.38,49h0l-2.13-7.63h-1.4Z" transform="translate(-47.86 -9.41)"/></svg>